<svg xmlns="http://www.w3.org/2000/svg" xmlns:se="http://svg-edit.googlecode.com" xmlns:xlink="http://www.w3.org/1999/xlink" xmlns:dc="http://purl.org/dc/elements/1.1/" xmlns:cc="http://creativecommons.org/ns#" xmlns:rdf="http://www.w3.org/1999/02/22-rdf-syntax-ns#" xmlns:inkscape="http://www.inkscape.org/namespaces/inkscape" width="200" height="200" style="">                                    <title>my vector image</title>                                    <!-- Created with Vector Paint - http://www.vectorpaint.yaks.com/ https://chrome.google.com/webstore/detail/hnbpdiengicdefcjecjbnjnoifekhgdo -->                                    <rect id="backgroundrect" width="100%" height="100%" x="0" y="0" fill="#FFFFFF" stroke="none" class="" style=""/>                                <g class="currentLayer" style=""><title>Layer 1</title><path fill="#a7226e" stroke="#a7226e" stroke-width="2" stroke-linejoin="round" stroke-dashoffset="" fill-rule="nonzero" marker-start="" marker-mid="" marker-end="" id="svg_1" d="M163.27505056177623,170.69470331902033 C163.27505056177623,172.88978914530682 161.4966535789191,174.66819177289926 159.30155646316288,174.66819177289926 L133.8563745394116,174.66819177289926 C131.66128871312614,174.66819177289926 129.88288608553324,172.88979479004234 129.88288608553324,170.69470331902033 L129.88288608553324,116.63552521665788 C129.88288608553324,114.44060873248733 131.66128306839025,112.66203676278441 133.8563745394116,112.66203676278441 L159.30155646316288,112.66203676278441 C161.4966535789191,112.66203676278441 163.27505056177623,114.44060873248733 163.27505056177623,116.63552521665788 L163.27505056177623,170.69470331902033 zM69.06995510372741,170.69470331902033 C69.06995510372741,172.88978914530682 67.29120814717483,174.66819177289926 65.09646100511337,174.66819177289926 L39.650934752402854,174.66819177289926 C37.45618761034049,174.66819177289926 35.67744629852595,172.88979479004234 35.67744629852595,170.69470331902033 L35.67744629852595,116.63552521665788 C35.67744629852595,114.44060873248733 37.45618761034049,112.66203676278441 39.650934752402854,112.66203676278441 L65.09646100511337,112.66203676278441 C67.29120814717483,112.66203676278441 69.06995510372741,114.44060873248733 69.06995510372741,116.63552521665788 L69.06995510372741,170.69470331902033 zM99.81118172468622,24.107673053740076 C53.766841558750954,24.107673053740076 16.3895096676993,61.146986801465886 15.815485068803266,107.05081817304203 L30.39274187802893,107.05081817304203 C30.865426512876077,69.11079631506755 61.758829599648124,38.49890755386761 99.81118172468622,38.49890755386761 C137.86352820498414,38.49890755386761 168.75694822596836,69.11079631506755 169.2241066632558,107.05081817304203 L183.80102478825745,107.05081817304203 C183.23284813693417,61.146986801465886 145.84452029813073,24.107673053740076 99.81117607994749,24.107673053740076 L99.81118172468622,24.107673053740076 zM15.933657638699152,149.09916996326587 L30.24640207031053,149.09916996326587 L30.24640207031053,106.96631645958124 L15.933657638699152,106.96631645958124 L15.933657638699152,149.09916996326587 zM169.1059510275705,106.96064349885684 L169.1059510275705,149.09367763412547 L183.94736459597613,149.09367763412547 L183.94736459597613,106.96064349885684 L169.1059510275705,106.96064349885684 z" style="color: rgb(167, 34, 110);" class=""/></g></svg>