<svg xmlns="http://www.w3.org/2000/svg" xmlns:se="http://svg-edit.googlecode.com" xmlns:xlink="http://www.w3.org/1999/xlink" xmlns:dc="http://purl.org/dc/elements/1.1/" xmlns:cc="http://creativecommons.org/ns#" xmlns:rdf="http://www.w3.org/1999/02/22-rdf-syntax-ns#" xmlns:inkscape="http://www.inkscape.org/namespaces/inkscape" width="200" height="200" style="">                                    <title>my vector image</title>                                    <!-- Created with Vector Paint - http://www.vectorpaint.yaks.com/ https://chrome.google.com/webstore/detail/hnbpdiengicdefcjecjbnjnoifekhgdo -->                                    <rect id="backgroundrect" width="100%" height="100%" x="0" y="0" fill="#FFFFFF" stroke="none" class="" style=""/>                                <g class="currentLayer" style=""><title>Layer 1</title><path fill="#9de0ad" stroke="#9de0ad" stroke-width="16" stroke-linejoin="round" stroke-dashoffset="" fill-rule="nonzero" marker-start="" marker-mid="" marker-end="" id="svg_14" d="M85.69612220116387,177.5984967021035 C60.9743958025912,173.7928861467012 38.85347279787925,156.88092901437 28.3264790780026,133.8006546878034 C15.626964114845645,106.5026337114436 20.259734091829554,71.73230272227944 40.457228503017404,49.397629904821436 C60.209182612363286,25.845041259894675 94.46957066300956,17.36852559851837 122.9141857409157,27.810828690531025 C152.62193458175778,38.14047706923024 174.08814238236,68.87193238144835 173.462328217976,100.90183484867102 C174.07898894402535,132.336915661392 153.45723928421532,162.49901272572885 124.57329480256413,173.36037621728903 C112.22844248400934,178.2806029548284 98.77196667964485,179.26605182167393 85.69613747386609,177.59850188496563 L85.69612220116387,177.5984967021035 zM90.14551795745678,129.82541420454416 C90.09999512898862,126.03608820513975 90.05448248232244,122.24675184000864 90.00895456295375,118.45742065774151 C79.55945452401413,129.1002124447732 69.109964666875,139.74300941466444 58.660459537034846,150.38581675028144 C67.64497671597721,157.69557662628804 78.62871071785597,162.22257953705534 90.00895456295375,163.73452955643765 C90.15930411486131,152.4321303255925 90.28258535106798,141.12881891083737 90.14551795745678,129.82541420454416 zM114.84289967187622,161.56694216640764 C122.2366734862748,159.34478441033139 129.33635109425714,155.80586844375316 135.3319855666403,150.8584886861994 C130.58687469770868,143.86773921960227 123.78530492539836,138.28447916571005 118.0461296351813,132.02912096782703 C113.52064528637223,127.42367542337036 108.9951456648641,122.81824542750212 104.46966131605416,118.21279988304805 C104.46966131605416,133.39706513473976 104.46966131605416,148.58133038643433 104.46966131605416,163.76559045526128 C107.9765074689158,163.29068988819412 111.44066642465049,162.55844980026905 114.84289967187622,161.56693698354297 L114.84289967187622,161.56694216640764 zM90.26264429547564,68.05178056887033 C90.26264429547564,58.04721173231966 90.26264429547564,48.04264289576684 90.26264429547564,38.03807405921953 C63.86606268132394,40.93563662597693 40.46344449200575,62.672098196429474 36.36224593722446,89.56827624460368 C33.34799018469225,107.24698096767293 37.49069484778297,126.33038154021196 48.7608225242633,140.3075786969982 C62.59476311466783,126.22688494607797 76.42870370507225,112.14618601229671 90.26264429547564,98.0654974442416 C90.26264429547564,88.06092860769459 90.26264429547564,78.05635458827899 90.26264429547564,68.05178575173197 L90.26264429547564,68.05178056887033 zM149.3198953389024,135.57275333986345 C164.56343997829163,112.41184402849647 162.3419239126918,78.91620194968272 143.39311529003098,58.56035146366728 C133.3852406507729,47.26818838753672 119.36194912298944,39.68010876066784 104.46965113425595,38.03806887635777 C104.46965113425595,58.04407610011584 104.46965113425595,78.05008850673892 104.46965113425595,98.05609573049688 C118.01828241177188,111.6547054660279 131.1308577342897,125.72451520434268 145.1404547408723,138.83133342181574 C147.1040759904874,141.19795312232242 148.08945533624723,136.36764906034006 149.3198953389024,135.57275333986345 z" style="color: rgb(157, 224, 173);" class=""/><path fill="#9de0ad" stroke="#9de0ad" stroke-width="16" stroke-linejoin="round" stroke-dashoffset="" fill-rule="nonzero" marker-start="" marker-mid="" marker-end="" id="svg_16" d="M95.01105491187852,126.6657589858373 C94.20792625333826,126.54432073528594 93.48928925639052,126.0046547716646 93.14730139484725,125.26815583262217 C92.7347353688328,124.39706724838001 92.885239030145,123.28753486062163 93.54139007440469,122.57482830431414 C94.18306696021857,121.82325766424071 95.29607577896232,121.55276933715047 96.22014900839204,121.88598657016948 C97.18525735439204,122.21560895523984 97.88262477917812,123.19625952777741 97.86229410800097,124.21834396451189 C97.88232741367331,125.2214474519186 97.21239369326806,126.18392962058184 96.27404807731504,126.53051920504285 C95.87300388959817,126.68752521462386 95.43584666250156,126.71897120329126 95.01105540803877,126.6657591512242 L95.01105491187852,126.6657589858373 zM95.15560133988475,125.14130463679436 C95.15412245092826,125.02038603163567 95.15264389274512,124.89946709570341 95.15116483840163,124.77854832515789 C94.81169449505323,125.11816321658807 94.47222448247861,125.45777827340507 94.13275397374336,125.79739366099597 C94.42463177844122,126.03065043763402 94.78145764943709,126.17510854907755 95.15116483840163,126.22335535799363 C95.15604920739715,125.86269218196855 95.16005421466325,125.50199989786262 95.15560133988475,125.14130463679436 zM95.95793911864526,126.1541869507879 C96.19813883404403,126.08327718574009 96.42878431815943,125.97034924485573 96.6235630238723,125.81247677371772 C96.46940977157305,125.58939972132177 96.24844884355662,125.41123610645712 96.06200166435697,125.21162562475806 C95.9149833649184,125.06466438377296 95.76796456931942,124.91770363894827 95.62094626988093,124.77074239796315 C95.62094626988093,125.2552771608423 95.62094626988093,125.73981192372159 95.62094626988093,126.22434652121393 C95.7348723202321,126.20919229215912 95.84741160208601,126.18582627664944 95.95793911864526,126.15418678540101 L95.95793911864526,126.1541869507879 zM95.15940639448405,123.17008822100397 C95.15940639448405,122.85083922814366 95.15940639448405,122.53159023528335 95.15940639448405,122.21234124242295 C94.30186712558236,122.3048033910973 93.54159201171348,122.99842083509577 93.4083573807413,123.85668648291676 C93.31043399383886,124.42081960750431 93.4450170235654,125.02977702612668 93.81114689558419,125.4757938598568 C94.26056672855073,125.02647441669069 94.70998656151735,124.57715480813758 95.15940639448405,124.12783553035865 C95.15940639448405,123.8085865374982 95.15940639448405,123.48933737925114 95.15940639448405,123.17008838639083 L95.15940639448405,123.17008822100397 zM97.07798481586424,125.32470406764983 C97.57319810963867,124.58563204044049 97.50102826239883,123.51677538368955 96.8854429669105,122.86721368116679 C96.56031959954205,122.50687714411382 96.10474836914143,122.26473909516847 95.62094593910723,122.21234107703626 C95.62094593910723,122.8507391691169 95.62094593910723,123.48913742658397 95.62094593910723,124.12753551866442 C96.06109699844397,124.56147150664128 96.4870820149834,125.01044363748247 96.94220835483452,125.4286864007531 C97.00600003647756,125.50420599267306 97.0380118134607,125.35006944444274 97.07798481586424,125.32470406764983 z" style="color: rgb(157, 224, 173);"/><path fill="#9de0ad" stroke="#9de0ad" stroke-width="16" stroke-linejoin="round" stroke-dashoffset="" fill-rule="nonzero" marker-start="" marker-mid="" marker-end="" id="svg_18" d="M93.17216604433847,116.9943815860065 C93.08292958457463,116.9808884558039 93.00308108112374,116.92092560983082 92.96508245447555,116.83909244743384 C92.91924181463675,116.74230488970959 92.93596443283019,116.61902359321485 93.0088700571501,116.53983402718572 C93.08016744268535,116.4563262324265 93.20383500903912,116.42627199334498 93.30650974574537,116.4632961063445 C93.41374393689243,116.49992079205308 93.49122915607967,116.60888189614033 93.48897019408005,116.72244675993153 C93.49119611548944,116.8339026307202 93.41675908370175,116.9408450245746 93.31249852729876,116.97935495343772 C93.26793809088527,116.99680005430378 93.21936509714206,117.00029405077946 93.17216609946738,116.9943816043828 L93.17216604433847,116.9943815860065 zM93.1882267481493,116.8249978792571 C93.18806242726065,116.81156248739406 93.18789814312458,116.79812705877839 93.18773380385963,116.78469164853902 C93.15001490127398,116.82242661201225 93.11229603544092,116.86016159386179 93.07457711447897,116.89789661246392 C93.10700796064278,116.92381401528819 93.14665525393909,116.93986490615397 93.18773380385963,116.94522565922483 C93.18827651117395,116.90515199897943 93.18872151169282,116.86507510450498 93.1882267481493,116.8249978792571 zM93.27737533243904,116.93754028562881 C93.30406417240329,116.92966142795358 93.32969143180202,116.91711388710097 93.35133349618407,116.89957251279097 C93.33420536814384,116.87478618970478 93.30965416983624,116.85499024533122 93.28893783002218,116.83281131729876 C93.27260247400807,116.81648230110868 93.25626706286504,116.80015334004752 93.2399317068509,116.78382432385743 C93.2399317068509,116.83766148483043 93.2399317068509,116.89149864580344 93.2399317068509,116.94533578840014 C93.25259014868352,116.94365198626342 93.26509450522742,116.94105576400104 93.27737533243904,116.93754026725252 L93.27737533243904,116.93754028562881 zM93.18864953171956,116.6059739750507 C93.18864953171956,116.57050188772934 93.18864953171956,116.53502980040798 93.18864953171956,116.4995577130866 C93.09336745250158,116.5098312785012 93.00889249461433,116.5868998334266 92.99408865632581,116.68226262136109 C92.98320828705701,116.74494403901244 92.99816194733225,116.8126059305499 93.0388430178498,116.86216332439201 C93.08877852247304,116.8122389741838 93.1387140270963,116.76231460559931 93.18864953171956,116.7123902737674 C93.18864953171956,116.67691818644603 93.18864953171956,116.64144608074837 93.18864953171956,116.605973993427 L93.18864953171956,116.6059739750507 zM93.40182477367206,116.8453755805858 C93.45684843730868,116.76325651968897 93.44882957059173,116.64449474593175 93.38043124876877,116.57232127021906 C93.34430645359188,116.5322839031693 93.29368746080796,116.50537969295061 93.23993167009831,116.49955769471029 C93.23993167009831,116.57049077006688 93.23993167009831,116.64142386379976 93.23993167009831,116.71235693915635 C93.28883731165257,116.76057201767384 93.33616894947201,116.81045777764875 93.3867385100047,116.85692916566269 C93.3938264700366,116.86532022599165 93.39738333183996,116.84819395395787 93.40182477367206,116.8453755805858 z" style="color: rgb(157, 224, 173);" class=""/></g></svg>