<svg xmlns="http://www.w3.org/2000/svg" xmlns:se="http://svg-edit.googlecode.com" xmlns:xlink="http://www.w3.org/1999/xlink" xmlns:dc="http://purl.org/dc/elements/1.1/" xmlns:cc="http://creativecommons.org/ns#" xmlns:rdf="http://www.w3.org/1999/02/22-rdf-syntax-ns#" xmlns:inkscape="http://www.inkscape.org/namespaces/inkscape" width="200" height="200" style="">                                    <title>my vector image</title>                                    <!-- Created with Vector Paint - http://www.vectorpaint.yaks.com/ https://chrome.google.com/webstore/detail/hnbpdiengicdefcjecjbnjnoifekhgdo -->                                    <rect id="backgroundrect" width="100%" height="100%" x="0" y="0" fill="#FFFFFF" stroke="none" class="" style=""/>                                <g class="currentLayer" style=""><title>Layer 1</title><path fill="#f26b38" stroke="#f26b38" stroke-width="2" stroke-linejoin="round" stroke-dashoffset="" fill-rule="nonzero" marker-start="" marker-mid="" marker-end="" id="svg_4" d="M103.70242192195673,44.763839471148245 C106.6662579179315,39.60580633522027 112.08889760738049,32.88663042026961 102.77217996375771,31.265648366732137 C100.17690529349156,29.985295864321973 97.58078581666862,27.71972232085086 94.98885565454607,30.243531722437528 C89.22190521660865,32.432872888405996 84.22265248378282,35.49457959164444 90.28839248409675,41.22461413391572 C92.97823919781125,44.92507909607352 95.42474690545967,52.99912161793112 98.47167483388101,53.88834736153505 C100.29018459443111,50.887364092707315 101.99373122727636,47.823344115776436 103.70242192195673,44.76383391039376 L103.70242192195673,44.763839471148245 zM90.96231666154502,59.00582591805248 C85.66818593642083,49.9252201810256 81.40786698139277,40.18340186015547 74.92809654637642,31.806392774468033 C67.04707556673105,23.7199553317936 51.518616833694566,27.32462518363907 47.989732551698346,37.755009437603746 C43.30203406112256,48.0672387891528 53.41654419680951,60.379704743114964 64.86668771041522,59.08898143436903 C73.55556942463556,59.22883439915339 82.29388968139169,59.604847028407555 90.96231666154502,59.00582591805248 zM134.95517249121403,59.31237360750159 C146.21519402540653,57.86184534838036 152.69048004206329,44.239071109848354 146.27945140074215,35.19388181547279 C140.59820832376664,25.541063363446437 124.25353915848538,25.204554331083738 118.54751894677793,35.0139469353743 C113.60669673859293,42.94437742269893 109.31833136319128,51.23134121778148 104.78441081110299,59.37918606761694 C114.80801166053182,59.929956514933664 124.92588366340175,59.8014864137245 134.95517249121403,59.3123680467469 L134.95517249121403,59.31237360750159 zM153.60289426740314,70.9270761411427 C157.4414985198802,67.68113053415448 172.30619968586603,63.85443645467795 161.04841168133495,60.7717379048365 C158.25960687369943,60.01121025336009 155.0082415451905,56.52225969364785 152.5018277946027,57.47703560619105 C147.05922521051968,63.980115057345586 138.69072191661186,67.79513155328286 129.9532464664112,67.39553576602974 C128.24279672246467,67.93585755645594 119.518635655033,66.57376196925935 121.87581953530162,68.12086940501774 C128.0397943362528,71.49855483660266 134.04853882580102,75.16673406064669 140.42426496852474,78.16475900831153 C144.8899587117352,75.87912782492123 149.22403043632852,73.361351841496 153.60289426740314,70.92707058038714 L153.60289426740314,70.9270761411427 zM65.9036993299993,72.76479970594579 C69.1863456464483,70.9270761411427 72.46898617655047,69.08934701558147 75.75162092030591,67.2516234507754 C65.71765672470607,66.7724866373503 54.23467569601354,68.1623804341265 46.651576326805376,60.4066021105367 C44.51359081596078,58.10597913418126 42.46342468246555,55.47201119452802 39.500277261696155,58.36840780086412 C35.95104239986782,60.718282375990206 25.03402968625184,63.126355803182015 33.4395424509065,65.99490971390556 C40.758853866329446,70.1500552931016 48.02668415898385,74.40657897969287 55.526899904211774,78.25431495255941 C59.100836678270625,76.64365365857077 62.46977477665186,74.63064956482118 65.90370511634609,72.76480526669918 L65.9036993299993,72.76479970594579 zM114.01161946426514,93.26996355204649 C118.26555607935654,89.98525948921431 128.56924502001527,86.85585060521078 128.91347475965551,83.33106654629033 C119.29575138303349,78.01231093556505 109.95816817475996,72.0904470602444 99.89612862705505,67.5948331917902 C96.43339964197186,66.33231958842697 93.6259396539607,68.27494677870374 90.83869137347192,69.96224082448933 C82.59670654077247,74.67361751149706 74.15641783503192,79.09259306740083 66.1826243656298,84.2151319101188 C76.61088755514885,90.41223086873805 87.16450036392985,96.42608629858874 97.82077452824319,102.25398455168575 C103.25605159794709,99.32426234622585 108.62105927854056,96.27478930193422 114.01161946426514,93.2699691128002 L114.01161946426514,93.26996355204649 zM156.68881059699592,103.52253713396559 C161.10202217953173,100.84655213658311 165.51523954841488,98.170572699952 169.92847427633714,95.49457102030664 C169.89234433022233,86.53183102648296 170.041296455921,77.56534864517126 169.78614751711723,68.6057393558865 C160.8790279669544,73.38203228586946 152.09858310934794,78.39680927552554 143.4663323660783,83.61857977456957 C142.5222205358695,92.86273284946095 143.0010291170721,102.25976217516074 143.20622452852146,111.55050324762486 C147.7611958083418,108.97153672644771 152.20550321573666,106.21318583982418 156.68881059699592,103.52253713396559 zM53.186380701202005,97.8758694166655 C53.63460265601785,90.23587711425883 54.60080096994322,81.52670750588712 45.013490629319634,79.26352508666419 C38.95905714961821,76.54983817670815 30.567084435237675,69.59683811399542 25.90276278359356,69.66658109150406 C25.757438697007025,78.27512885503198 25.834350811635943,86.88526143346971 25.81862352247245,95.494565459552 C34.762029250099246,100.85815186956475 43.546732858561,106.4799574554331 52.68315952508323,111.53600636177245 C53.56906071181068,107.09840784049857 52.98993424531362,102.394304619812 53.186380701202005,97.8758694166655 zM117.22998525999344,127.45697352713188 C122.51985144791655,124.24755095285879 127.80971184949317,121.03812837858393 133.0995780374153,117.82870580431167 C133.0750844336527,108.5757278127149 133.47321398880288,99.30944293663676 133.03809810828977,90.06640201255895 C127.22450393306639,91.66854423131788 120.57517619328087,96.62081278450671 114.45023608427199,99.69684399022066 C109.86398381651293,102.2785686454151 105.27770840336784,104.86030998287193 100.69145034926098,107.44204575957527 C100.78189094147123,117.32196540769655 100.44421134580993,127.21992970276611 101.02591273639699,137.08521900693762 C106.50860891378875,134.00660205058125 111.84557596035457,130.69091902684113 117.22997947364762,127.45697352713188 L117.22998525999344,127.45697352713188 zM95.0552655506949,122.2636240421252 C95.0552655506949,117.32309424077343 95.0552655506949,112.38255887866623 95.0552655506949,107.44204575957527 C84.43597192539565,101.47810921898518 73.85066729809134,95.45764205254854 63.18997236522691,89.56227517035556 C62.60043626178961,99.00995740485234 62.937334700704696,108.49316729708397 62.848433276602776,117.95717034476644 C73.46536028627625,124.34518111201155 83.97227149430638,130.90764385584794 94.7234996009216,137.08521900693762 C95.14185822263431,132.16219445938634 94.98909868108963,127.19988874510847 95.0552655506949,122.2636240421252 zM156.95276635482375,142.12440770694616 C161.28055410736704,139.35490194766362 165.6083418599094,136.58539062762804 169.93614697149115,133.81588486834556 C169.75557246342314,125.0352484487057 170.38195601991282,116.13578983616343 169.47093051767826,107.4520439953875 C160.47076651948308,112.38679061250951 151.78470854224403,118.00488717541525 142.94495363536276,123.27288978377126 C143.15731254349487,132.35794412405266 142.5089177257922,141.54701236915656 143.48546202684935,150.554438582664 C148.05134056939025,147.86120412616424 152.47812692027816,144.95426433011633 156.95276635482375,142.12440770694616 zM53.09082497888822,137.2018391412295 C53.0555977027926,132.5980352416483 53.0203299222737,127.9942257813133 52.98509685983211,123.39042744248438 C44.04403460244413,118.014679663327 35.21561514790788,112.4591026583976 26.140228648194906,107.29471914132428 C25.572275616347,116.11490920464314 25.89599854480427,124.96947584960252 25.81058050115631,133.80541396843904 C34.830406503979276,139.54325024866645 43.74876313859968,145.4331397881019 52.88952956482595,150.991875301342 C53.23975395920215,146.40889642574103 53.065943689924424,141.79492746772337 53.09082497888822,137.2018391412295 zM117.45859222845377,167.45608921376527 C122.71215487987479,164.10303792269562 127.96571753129575,160.74999219237975 133.21928018271552,157.39695202281817 C133.20707677843205,148.04738929383342 133.4047383670361,138.69380057890476 133.14332281522178,129.3474352835085 C122.44915965552744,135.6842815525835 111.82653888112378,142.13776463821455 101.28225366253244,148.7023627116111 C100.09059615251789,157.7302803038553 100.86325275638332,167.03834868599216 100.86151106615434,176.16494185915465 C104.13414121720932,178.08059383145317 112.5016608322506,169.5906513914183 117.45859222845377,167.4560836530106 L117.45859222845377,167.45608921376527 zM95.05525976434802,163.4537142310496 C94.41998259364179,157.00687624653003 97.787485678149,147.93259308687578 89.2614086025991,145.43335109675564 C80.66317578905436,140.19973619154982 72.09950482178476,134.9090012205686 63.38813157961147,129.85057231148824 C62.118416258406455,138.70142437273023 63.44637115482563,147.92196092509926 62.471001482062036,156.88109198953413 C72.91759003021997,164.13848772987149 83.63716682273498,171.07641258830895 94.55202701553695,177.66533339999407 C95.42743755647464,173.04797794275115 94.8829655177939,168.15698333862622 95.05525976434802,163.45370867029496 L95.05525976434802,163.4537142310496 zM58.520460360978376,161.74945988535922 C45.80552570684445,153.5925287633794 33.090596839055934,145.43560320215312 20.375673757614273,137.27868876243386 C20.3900875461736,112.10527743787097 20.02817473233057,86.92581601288047 20.493084509791572,61.757131329273356 C26.860113774071237,57.98170740229399 33.6356532987114,54.88677519350344 40.18824490154314,51.42290919538784 C35.955937648812686,39.77968555414016 42.06232094533063,25.630702719004802 54.334478596490186,21.27252288731589 C64.62200627201503,17.21599728149682 77.02278861442421,20.876713973583133 83.58157739411241,29.416402919500506 C88.34549942411309,27.068413440003702 93.10943302680512,24.720423960505684 97.87336084315115,22.372434481007897 C102.66286431001349,24.74166604104142 107.45239670860656,27.110897601074942 112.24189438912305,29.48012360035495 C119.10481931514212,21.656726507309493 130.86283116842333,17.192102721272292 141.0521876931211,21.576557115927507 C153.28289195959746,25.707924910733798 159.9494861566542,39.8252837374887 155.56333731562592,51.4502291801192 C162.16414654193102,55.031643958456975 169.34076665832114,57.830288069049516 175.3929608220152,62.20052917631026 C175.66126212589174,87.22484556283199 175.39536215571658,112.25284872929943 175.3710305696489,137.27869988394406 C150.0714003432396,153.36889191706794 125.1817501091426,170.07328591915325 99.47137609271208,185.5517060328477 C91.99523154796996,185.5497708904304 85.54224032349374,177.74876139326102 78.60490298443467,174.5858990127892 C71.89797216752444,170.3246097599634 65.20797219980327,166.03875309566774 58.52043142924663,161.74946544611393 L58.520460360978376,161.74945988535922 z" style="color: rgb(167, 34, 110);" class="" fill-opacity="1" stroke-opacity="1"/></g></svg>